<svg xmlns="http://www.w3.org/2000/svg" width="180.351" height="180.351" viewBox="0 0 180.351 180.351">
  <g id="Group_1227" data-name="Group 1227" transform="translate(-1075 -2711)">
    <rect id="Rectangle_844" data-name="Rectangle 844" width="180.351" height="180.351" rx="26" transform="translate(1075 2711)" fill="#1665d8"/>
    <g id="Group_1228" data-name="Group 1228" transform="translate(1093.778 2739.624)">
      <path id="Exclusion_2" data-name="Exclusion 2" d="M36.586,88.356a8.637,8.637,0,0,1-6.134-2.526L2.536,57.9a8.683,8.683,0,0,1,0-12.265L44.507,3.6A12.317,12.317,0,0,1,53.246,0h.176l25.17.36A9.464,9.464,0,0,1,87.96,9.745v.063c1.129.371,2.317.82,3.54,1.331a50.373,50.373,0,0,1,16,10.167,1.319,1.319,0,0,1,.118.118l.012.018a.369.369,0,0,1,.065.055l.006.013c6.257,6.363,5.587,11.25,4.622,13.6-.976,2.326-3.946,6.235-12.9,6.282h-.253A43.945,43.945,0,0,1,87.507,39.6a12.78,12.78,0,0,1-2.758,4.2L42.719,85.83A8.627,8.627,0,0,1,36.586,88.356Zm2.058-34.514,1.435,7.927c.006,0,.2.015.523.015a19.015,19.015,0,0,0,13.085-5.67C59,50.8,59.75,44.383,55.533,40.151a8.037,8.037,0,0,0-5.945-2.492,18.959,18.959,0,0,0-7.874,2.288c-.482.231-.959.462-1.411.684-1.741.856-3.246,1.6-4.217,1.6a1.11,1.11,0,0,1-.823-.29c-.688-.7-.024-1.995.941-2.961a3.74,3.74,0,0,1,2.305-1.222.919.919,0,0,1,.682.251l1.053,1.05,6.345-6.329L44,30.157a5.383,5.383,0,0,0-3.922-1.649c-3.881,0-7.9,3.6-9.45,5.142-3.07,3.062-4.816,6.607-4.81,9.725a8.184,8.184,0,0,0,2.564,5.94,8.416,8.416,0,0,0,6.175,2.492,21.279,21.279,0,0,0,8-2.069c.565-.241,1.088-.475,1.576-.691a12.884,12.884,0,0,1,3.946-1.378.878.878,0,0,1,.653.221,1.272,1.272,0,0,1,.423.907,2.69,2.69,0,0,1-1.023,1.787c-3.164,3.167-8.821,3.258-9.456,3.258Zm34.685-28.98h0a49.584,49.584,0,0,0,10.133,5.622c7.192,3,12.514,3.629,15.708,3.629,3.881,0,6.034-.939,6.4-1.812.247-.624-.065-2.606-3.082-5.639a.909.909,0,0,0-.094-.094.1.1,0,0,1-.024-.024.068.068,0,0,1-.029-.023,43.42,43.42,0,0,0-13.626-8.6c-.123-.053-.223-.1-.335-.141l-.071-.025c-.065-.026-.141-.054-.212-.085l.147,10.1c-1.088-.366-2.182-.8-3.6-1.363a50.588,50.588,0,0,1-9.592-5.232,7.179,7.179,0,0,0-12.179-6.125,7.2,7.2,0,0,0,0,10.167,7.2,7.2,0,0,0,10.144,0l.024-.024c.029-.028.047-.056.076-.082l.035-.04c.065-.071.123-.138.182-.211Z" transform="translate(62.477 0) rotate(45)" fill="#fff"/>
    </g>
  </g>
</svg>
